<mxfile host="app.diagrams.net" agent="Mozilla/5.0 (Windows NT 10.0; Win64; x64) AppleWebKit/537.36 (KHTML, like Gecko) Chrome/137.0.0.0 Safari/537.36" version="27.1.3">
  <diagram name="Page-1" id="_98XeD7W4D4j4_0L84BJ">
    <mxGraphModel dx="6060" dy="2850" grid="1" gridSize="10" guides="1" tooltips="1" connect="1" arrows="1" fold="1" page="1" pageScale="1" pageWidth="850" pageHeight="1100" math="0" shadow="0">
      <root>
        <mxCell id="0" />
        <mxCell id="1" parent="0" />
        <mxCell id="zx1hdnG0JAQ6Zl6AE59M-1" value="&amp;lt;&amp;lt;component&amp;gt;&amp;gt;&lt;br&gt;EntityFramework" style="html=1;dropTarget=0;whiteSpace=wrap;fillColor=#e1d5e7;strokeColor=#9673a6;" vertex="1" parent="1">
          <mxGeometry x="330" width="190" height="60" as="geometry" />
        </mxCell>
        <mxCell id="zx1hdnG0JAQ6Zl6AE59M-2" value="" style="shape=module;jettyWidth=8;jettyHeight=4;fillColor=#f5f5f5;fontColor=#333333;strokeColor=#666666;" vertex="1" parent="zx1hdnG0JAQ6Zl6AE59M-1">
          <mxGeometry x="1" width="20" height="20" relative="1" as="geometry">
            <mxPoint x="-27" y="7" as="offset" />
          </mxGeometry>
        </mxCell>
        <mxCell id="zx1hdnG0JAQ6Zl6AE59M-3" value="" style="shape=providedRequiredInterface;html=1;verticalLabelPosition=bottom;sketch=0;fillColor=#f8cecc;strokeColor=#b85450;" vertex="1" parent="1">
          <mxGeometry x="-120" y="195" width="20" height="20" as="geometry" />
        </mxCell>
        <mxCell id="zx1hdnG0JAQ6Zl6AE59M-4" value="Korisnik" style="text;align=center;fontStyle=1;verticalAlign=middle;spacingLeft=3;spacingRight=3;strokeColor=none;rotatable=0;points=[[0,0.5],[1,0.5]];portConstraint=eastwest;html=1;" vertex="1" parent="1">
          <mxGeometry x="-150" y="225" width="80" height="26" as="geometry" />
        </mxCell>
        <mxCell id="zx1hdnG0JAQ6Zl6AE59M-5" value="" style="shape=providedRequiredInterface;html=1;verticalLabelPosition=bottom;sketch=0;fillColor=#f8cecc;strokeColor=#b85450;" vertex="1" parent="1">
          <mxGeometry x="330" y="190" width="20" height="20" as="geometry" />
        </mxCell>
        <mxCell id="zx1hdnG0JAQ6Zl6AE59M-6" value="Poruka" style="text;align=center;fontStyle=1;verticalAlign=middle;spacingLeft=3;spacingRight=3;strokeColor=none;rotatable=0;points=[[0,0.5],[1,0.5]];portConstraint=eastwest;html=1;" vertex="1" parent="1">
          <mxGeometry x="300" y="220" width="80" height="26" as="geometry" />
        </mxCell>
        <mxCell id="zx1hdnG0JAQ6Zl6AE59M-9" value="" style="shape=providedRequiredInterface;html=1;verticalLabelPosition=bottom;sketch=0;fillColor=#f8cecc;strokeColor=#b85450;" vertex="1" parent="1">
          <mxGeometry x="105" y="190" width="20" height="20" as="geometry" />
        </mxCell>
        <mxCell id="zx1hdnG0JAQ6Zl6AE59M-10" value="ObavjeÅ¡tenje" style="text;align=center;fontStyle=1;verticalAlign=middle;spacingLeft=3;spacingRight=3;strokeColor=none;rotatable=0;points=[[0,0.5],[1,0.5]];portConstraint=eastwest;html=1;" vertex="1" parent="1">
          <mxGeometry x="75" y="220" width="80" height="26" as="geometry" />
        </mxCell>
        <mxCell id="zx1hdnG0JAQ6Zl6AE59M-11" value="" style="shape=providedRequiredInterface;html=1;verticalLabelPosition=bottom;sketch=0;fillColor=#f8cecc;strokeColor=#b85450;" vertex="1" parent="1">
          <mxGeometry x="560" y="190" width="20" height="20" as="geometry" />
        </mxCell>
        <mxCell id="zx1hdnG0JAQ6Zl6AE59M-12" value="Nekretnina" style="text;align=center;fontStyle=1;verticalAlign=middle;spacingLeft=3;spacingRight=3;strokeColor=none;rotatable=0;points=[[0,0.5],[1,0.5]];portConstraint=eastwest;html=1;" vertex="1" parent="1">
          <mxGeometry x="530" y="220" width="80" height="26" as="geometry" />
        </mxCell>
        <mxCell id="zx1hdnG0JAQ6Zl6AE59M-13" value="" style="shape=providedRequiredInterface;html=1;verticalLabelPosition=bottom;sketch=0;fillColor=#f8cecc;strokeColor=#b85450;" vertex="1" parent="1">
          <mxGeometry x="1060" y="190" width="20" height="20" as="geometry" />
        </mxCell>
        <mxCell id="zx1hdnG0JAQ6Zl6AE59M-14" value="Oglas" style="text;align=center;fontStyle=1;verticalAlign=middle;spacingLeft=3;spacingRight=3;strokeColor=none;rotatable=0;points=[[0,0.5],[1,0.5]];portConstraint=eastwest;html=1;" vertex="1" parent="1">
          <mxGeometry x="1030" y="220" width="80" height="26" as="geometry" />
        </mxCell>
        <mxCell id="zx1hdnG0JAQ6Zl6AE59M-17" value="" style="shape=providedRequiredInterface;html=1;verticalLabelPosition=bottom;sketch=0;fillColor=#f8cecc;strokeColor=#b85450;" vertex="1" parent="1">
          <mxGeometry x="830" y="200" width="20" height="20" as="geometry" />
        </mxCell>
        <mxCell id="zx1hdnG0JAQ6Zl6AE59M-18" value="FilterNekretnina" style="text;align=center;fontStyle=1;verticalAlign=middle;spacingLeft=3;spacingRight=3;strokeColor=none;rotatable=0;points=[[0,0.5],[1,0.5]];portConstraint=eastwest;html=1;" vertex="1" parent="1">
          <mxGeometry x="800" y="230" width="80" height="26" as="geometry" />
        </mxCell>
        <mxCell id="zx1hdnG0JAQ6Zl6AE59M-19" value="&amp;lt;&amp;lt;component&amp;gt;&amp;gt;&lt;div&gt;PretragaController&lt;/div&gt;" style="html=1;dropTarget=0;whiteSpace=wrap;fillColor=#e1d5e7;strokeColor=#9673a6;" vertex="1" parent="1">
          <mxGeometry x="770" y="330" width="160" height="50" as="geometry" />
        </mxCell>
        <mxCell id="zx1hdnG0JAQ6Zl6AE59M-20" value="" style="shape=module;jettyWidth=8;jettyHeight=4;fillColor=#f5f5f5;fontColor=#333333;strokeColor=#666666;" vertex="1" parent="zx1hdnG0JAQ6Zl6AE59M-19">
          <mxGeometry x="1" width="20" height="20" relative="1" as="geometry">
            <mxPoint x="-27" y="7" as="offset" />
          </mxGeometry>
        </mxCell>
        <mxCell id="zx1hdnG0JAQ6Zl6AE59M-21" value="&amp;lt;&amp;lt;component&amp;gt;&amp;gt;&lt;div&gt;ObavjestenjeController&lt;/div&gt;" style="html=1;dropTarget=0;whiteSpace=wrap;fillColor=#e1d5e7;strokeColor=#9673a6;" vertex="1" parent="1">
          <mxGeometry x="50" y="320" width="150" height="50" as="geometry" />
        </mxCell>
        <mxCell id="zx1hdnG0JAQ6Zl6AE59M-22" value="" style="shape=module;jettyWidth=8;jettyHeight=4;fillColor=#f5f5f5;fontColor=#333333;strokeColor=#666666;" vertex="1" parent="zx1hdnG0JAQ6Zl6AE59M-21">
          <mxGeometry x="1" width="20" height="20" relative="1" as="geometry">
            <mxPoint x="-27" y="7" as="offset" />
          </mxGeometry>
        </mxCell>
        <mxCell id="zx1hdnG0JAQ6Zl6AE59M-24" value="&amp;lt;&amp;lt;component&amp;gt;&amp;gt;&lt;div&gt;OglasController&lt;/div&gt;" style="html=1;dropTarget=0;whiteSpace=wrap;fillColor=#e1d5e7;strokeColor=#9673a6;" vertex="1" parent="1">
          <mxGeometry x="1050" y="330" width="150" height="50" as="geometry" />
        </mxCell>
        <mxCell id="zx1hdnG0JAQ6Zl6AE59M-25" value="" style="shape=module;jettyWidth=8;jettyHeight=4;fillColor=#f5f5f5;fontColor=#333333;strokeColor=#666666;" vertex="1" parent="zx1hdnG0JAQ6Zl6AE59M-24">
          <mxGeometry x="1" width="20" height="20" relative="1" as="geometry">
            <mxPoint x="-27" y="7" as="offset" />
          </mxGeometry>
        </mxCell>
        <mxCell id="zx1hdnG0JAQ6Zl6AE59M-26" value="&amp;lt;&amp;lt;component&amp;gt;&amp;gt;&lt;div&gt;&lt;span style=&quot;background-color: transparent; color: light-dark(rgb(0, 0, 0), rgb(255, 255, 255));&quot;&gt;NekretninaController&lt;/span&gt;&lt;/div&gt;" style="html=1;dropTarget=0;whiteSpace=wrap;fillColor=#e1d5e7;strokeColor=#9673a6;" vertex="1" parent="1">
          <mxGeometry x="510" y="330" width="150" height="50" as="geometry" />
        </mxCell>
        <mxCell id="zx1hdnG0JAQ6Zl6AE59M-27" value="" style="shape=module;jettyWidth=8;jettyHeight=4;fillColor=#f5f5f5;fontColor=#333333;strokeColor=#666666;" vertex="1" parent="zx1hdnG0JAQ6Zl6AE59M-26">
          <mxGeometry x="1" width="20" height="20" relative="1" as="geometry">
            <mxPoint x="-27" y="7" as="offset" />
          </mxGeometry>
        </mxCell>
        <mxCell id="zx1hdnG0JAQ6Zl6AE59M-28" value="&amp;lt;&amp;lt;component&amp;gt;&amp;gt;&lt;div&gt;PorukaController&lt;/div&gt;" style="html=1;dropTarget=0;whiteSpace=wrap;fillColor=#e1d5e7;strokeColor=#9673a6;" vertex="1" parent="1">
          <mxGeometry x="275" y="330" width="150" height="50" as="geometry" />
        </mxCell>
        <mxCell id="zx1hdnG0JAQ6Zl6AE59M-29" value="" style="shape=module;jettyWidth=8;jettyHeight=4;fillColor=#f5f5f5;fontColor=#333333;strokeColor=#666666;" vertex="1" parent="zx1hdnG0JAQ6Zl6AE59M-28">
          <mxGeometry x="1" width="20" height="20" relative="1" as="geometry">
            <mxPoint x="-27" y="7" as="offset" />
          </mxGeometry>
        </mxCell>
        <mxCell id="zx1hdnG0JAQ6Zl6AE59M-30" value="&amp;lt;&amp;lt;component&amp;gt;&amp;gt;&lt;div&gt;KorisnikController&lt;/div&gt;" style="html=1;dropTarget=0;whiteSpace=wrap;fillColor=#e1d5e7;strokeColor=#9673a6;" vertex="1" parent="1">
          <mxGeometry x="-190" y="320" width="150" height="50" as="geometry" />
        </mxCell>
        <mxCell id="zx1hdnG0JAQ6Zl6AE59M-31" value="" style="shape=module;jettyWidth=8;jettyHeight=4;fillColor=#f5f5f5;fontColor=#333333;strokeColor=#666666;" vertex="1" parent="zx1hdnG0JAQ6Zl6AE59M-30">
          <mxGeometry x="1" width="20" height="20" relative="1" as="geometry">
            <mxPoint x="-27" y="7" as="offset" />
          </mxGeometry>
        </mxCell>
        <mxCell id="zx1hdnG0JAQ6Zl6AE59M-32" value="&amp;lt;&amp;lt;component&amp;gt;&amp;gt;&lt;div&gt;PrijavaController&lt;/div&gt;" style="html=1;dropTarget=0;whiteSpace=wrap;fillColor=#e1d5e7;strokeColor=#9673a6;" vertex="1" parent="1">
          <mxGeometry x="-450" y="320" width="150" height="50" as="geometry" />
        </mxCell>
        <mxCell id="zx1hdnG0JAQ6Zl6AE59M-33" value="" style="shape=module;jettyWidth=8;jettyHeight=4;fillColor=#f5f5f5;fontColor=#333333;strokeColor=#666666;" vertex="1" parent="zx1hdnG0JAQ6Zl6AE59M-32">
          <mxGeometry x="1" width="20" height="20" relative="1" as="geometry">
            <mxPoint x="-27" y="7" as="offset" />
          </mxGeometry>
        </mxCell>
        <mxCell id="zx1hdnG0JAQ6Zl6AE59M-40" value="" style="shape=providedRequiredInterface;html=1;verticalLabelPosition=bottom;sketch=0;fillColor=#f8cecc;strokeColor=#b85450;" vertex="1" parent="1">
          <mxGeometry x="820" y="530" width="20" height="20" as="geometry" />
        </mxCell>
        <mxCell id="zx1hdnG0JAQ6Zl6AE59M-41" value="PretragaView" style="text;align=center;fontStyle=1;verticalAlign=middle;spacingLeft=3;spacingRight=3;strokeColor=none;rotatable=0;points=[[0,0.5],[1,0.5]];portConstraint=eastwest;html=1;" vertex="1" parent="1">
          <mxGeometry x="790" y="560" width="80" height="26" as="geometry" />
        </mxCell>
        <mxCell id="zx1hdnG0JAQ6Zl6AE59M-42" value="" style="shape=providedRequiredInterface;html=1;verticalLabelPosition=bottom;sketch=0;fillColor=#f8cecc;strokeColor=#b85450;" vertex="1" parent="1">
          <mxGeometry x="100" y="547" width="20" height="20" as="geometry" />
        </mxCell>
        <mxCell id="zx1hdnG0JAQ6Zl6AE59M-43" value="ObavjestenjeView" style="text;align=center;fontStyle=1;verticalAlign=middle;spacingLeft=3;spacingRight=3;strokeColor=none;rotatable=0;points=[[0,0.5],[1,0.5]];portConstraint=eastwest;html=1;" vertex="1" parent="1">
          <mxGeometry x="70" y="577" width="80" height="26" as="geometry" />
        </mxCell>
        <mxCell id="zx1hdnG0JAQ6Zl6AE59M-44" value="" style="shape=providedRequiredInterface;html=1;verticalLabelPosition=bottom;sketch=0;fillColor=#f8cecc;strokeColor=#b85450;" vertex="1" parent="1">
          <mxGeometry x="1030" y="557" width="20" height="20" as="geometry" />
        </mxCell>
        <mxCell id="zx1hdnG0JAQ6Zl6AE59M-45" value="OglasView&lt;span style=&quot;color: rgba(0, 0, 0, 0); font-family: monospace; font-size: 0px; font-weight: 400; text-align: start;&quot;&gt;%3CmxGraphModel%3E%3Croot%3E%3CmxCell%20id%3D%220%22%2F%3E%3CmxCell%20id%3D%221%22%20parent%3D%220%22%2F%3E%3CmxCell%20id%3D%222%22%20value%3D%22%22%20style%3D%22shape%3DprovidedRequiredInterface%3Bhtml%3D1%3BverticalLabelPosition%3Dbottom%3Bsketch%3D0%3B%22%20vertex%3D%221%22%20parent%3D%221%22%3E%3CmxGeometry%20x%3D%22-20%22%20y%3D%22190%22%20width%3D%2220%22%20height%3D%2220%22%20as%3D%22geometry%22%2F%3E%3C%2FmxCell%3E%3CmxCell%20id%3D%223%22%20value%3D%22Korisnik%22%20style%3D%22text%3Balign%3Dcenter%3BfontStyle%3D1%3BverticalAlign%3Dmiddle%3BspacingLeft%3D3%3BspacingRight%3D3%3BstrokeColor%3Dnone%3Brotatable%3D0%3Bpoints%3D%5B%5B0%2C0.5%5D%2C%5B1%2C0.5%5D%5D%3BportConstraint%3Deastwest%3Bhtml%3D1%3B%22%20vertex%3D%221%22%20parent%3D%221%22%3E%3CmxGeometry%20x%3D%22-50%22%20y%3D%22220%22%20width%3D%2280%22%20height%3D%2226%22%20as%3D%22geometry%22%2F%3E%3C%2FmxCell%3E%3C%2Froot%3E%3C%2FmxGraphModel%3E&lt;/span&gt;" style="text;align=center;fontStyle=1;verticalAlign=middle;spacingLeft=3;spacingRight=3;strokeColor=none;rotatable=0;points=[[0,0.5],[1,0.5]];portConstraint=eastwest;html=1;" vertex="1" parent="1">
          <mxGeometry x="1000" y="587" width="80" height="26" as="geometry" />
        </mxCell>
        <mxCell id="zx1hdnG0JAQ6Zl6AE59M-46" value="" style="shape=providedRequiredInterface;html=1;verticalLabelPosition=bottom;sketch=0;fillColor=#f8cecc;strokeColor=#b85450;" vertex="1" parent="1">
          <mxGeometry x="1280" y="550" width="20" height="20" as="geometry" />
        </mxCell>
        <mxCell id="zx1hdnG0JAQ6Zl6AE59M-47" value="OglasEditView" style="text;align=center;fontStyle=1;verticalAlign=middle;spacingLeft=3;spacingRight=3;strokeColor=none;rotatable=0;points=[[0,0.5],[1,0.5]];portConstraint=eastwest;html=1;" vertex="1" parent="1">
          <mxGeometry x="1250" y="580" width="80" height="26" as="geometry" />
        </mxCell>
        <mxCell id="zx1hdnG0JAQ6Zl6AE59M-48" value="" style="shape=providedRequiredInterface;html=1;verticalLabelPosition=bottom;sketch=0;fillColor=#f8cecc;strokeColor=#b85450;" vertex="1" parent="1">
          <mxGeometry x="1160" y="565" width="20" height="20" as="geometry" />
        </mxCell>
        <mxCell id="zx1hdnG0JAQ6Zl6AE59M-49" value="OglasCreateView" style="text;align=center;fontStyle=1;verticalAlign=middle;spacingLeft=3;spacingRight=3;strokeColor=none;rotatable=0;points=[[0,0.5],[1,0.5]];portConstraint=eastwest;html=1;" vertex="1" parent="1">
          <mxGeometry x="1130" y="595" width="80" height="26" as="geometry" />
        </mxCell>
        <mxCell id="zx1hdnG0JAQ6Zl6AE59M-50" value="" style="shape=providedRequiredInterface;html=1;verticalLabelPosition=bottom;sketch=0;fillColor=#f8cecc;strokeColor=#b85450;" vertex="1" parent="1">
          <mxGeometry x="310" y="570" width="20" height="20" as="geometry" />
        </mxCell>
        <mxCell id="zx1hdnG0JAQ6Zl6AE59M-51" value="PorukaView" style="text;align=center;fontStyle=1;verticalAlign=middle;spacingLeft=3;spacingRight=3;strokeColor=none;rotatable=0;points=[[0,0.5],[1,0.5]];portConstraint=eastwest;html=1;" vertex="1" parent="1">
          <mxGeometry x="280" y="600" width="80" height="26" as="geometry" />
        </mxCell>
        <mxCell id="zx1hdnG0JAQ6Zl6AE59M-54" value="" style="shape=providedRequiredInterface;html=1;verticalLabelPosition=bottom;sketch=0;fillColor=#f8cecc;strokeColor=#b85450;" vertex="1" parent="1">
          <mxGeometry x="450" y="574" width="20" height="20" as="geometry" />
        </mxCell>
        <mxCell id="zx1hdnG0JAQ6Zl6AE59M-55" value="NekretninaView" style="text;align=center;fontStyle=1;verticalAlign=middle;spacingLeft=3;spacingRight=3;strokeColor=none;rotatable=0;points=[[0,0.5],[1,0.5]];portConstraint=eastwest;html=1;" vertex="1" parent="1">
          <mxGeometry x="420" y="604" width="80" height="26" as="geometry" />
        </mxCell>
        <mxCell id="zx1hdnG0JAQ6Zl6AE59M-56" value="" style="shape=providedRequiredInterface;html=1;verticalLabelPosition=bottom;sketch=0;fillColor=#f8cecc;strokeColor=#b85450;" vertex="1" parent="1">
          <mxGeometry x="560" y="574" width="20" height="20" as="geometry" />
        </mxCell>
        <mxCell id="zx1hdnG0JAQ6Zl6AE59M-57" value="NekretninaEditView" style="text;align=center;fontStyle=1;verticalAlign=middle;spacingLeft=3;spacingRight=3;strokeColor=none;rotatable=0;points=[[0,0.5],[1,0.5]];portConstraint=eastwest;html=1;" vertex="1" parent="1">
          <mxGeometry x="530" y="604" width="80" height="26" as="geometry" />
        </mxCell>
        <mxCell id="zx1hdnG0JAQ6Zl6AE59M-58" value="" style="shape=providedRequiredInterface;html=1;verticalLabelPosition=bottom;sketch=0;fillColor=#f8cecc;strokeColor=#b85450;" vertex="1" parent="1">
          <mxGeometry x="690" y="574" width="20" height="20" as="geometry" />
        </mxCell>
        <mxCell id="zx1hdnG0JAQ6Zl6AE59M-59" value="NekretninaCreateView" style="text;align=center;fontStyle=1;verticalAlign=middle;spacingLeft=3;spacingRight=3;strokeColor=none;rotatable=0;points=[[0,0.5],[1,0.5]];portConstraint=eastwest;html=1;" vertex="1" parent="1">
          <mxGeometry x="660" y="604" width="80" height="26" as="geometry" />
        </mxCell>
        <mxCell id="zx1hdnG0JAQ6Zl6AE59M-60" value="" style="shape=providedRequiredInterface;html=1;verticalLabelPosition=bottom;sketch=0;fillColor=#f8cecc;strokeColor=#b85450;" vertex="1" parent="1">
          <mxGeometry x="-160" y="547" width="20" height="20" as="geometry" />
        </mxCell>
        <mxCell id="zx1hdnG0JAQ6Zl6AE59M-61" value="KorisnikCreateView" style="text;align=center;fontStyle=1;verticalAlign=middle;spacingLeft=3;spacingRight=3;strokeColor=none;rotatable=0;points=[[0,0.5],[1,0.5]];portConstraint=eastwest;html=1;" vertex="1" parent="1">
          <mxGeometry x="-190" y="577" width="80" height="26" as="geometry" />
        </mxCell>
        <mxCell id="zx1hdnG0JAQ6Zl6AE59M-62" value="" style="shape=providedRequiredInterface;html=1;verticalLabelPosition=bottom;sketch=0;fillColor=#f8cecc;strokeColor=#b85450;" vertex="1" parent="1">
          <mxGeometry x="-40" y="548" width="20" height="20" as="geometry" />
        </mxCell>
        <mxCell id="zx1hdnG0JAQ6Zl6AE59M-63" value="KorisnikEdit&lt;span style=&quot;background-color: transparent; color: light-dark(rgb(0, 0, 0), rgb(255, 255, 255));&quot;&gt;View&lt;/span&gt;" style="text;align=center;fontStyle=1;verticalAlign=middle;spacingLeft=3;spacingRight=3;strokeColor=none;rotatable=0;points=[[0,0.5],[1,0.5]];portConstraint=eastwest;html=1;" vertex="1" parent="1">
          <mxGeometry x="-70" y="578" width="80" height="26" as="geometry" />
        </mxCell>
        <mxCell id="zx1hdnG0JAQ6Zl6AE59M-64" value="" style="shape=providedRequiredInterface;html=1;verticalLabelPosition=bottom;sketch=0;fillColor=#f8cecc;strokeColor=#b85450;" vertex="1" parent="1">
          <mxGeometry x="-430" y="552" width="20" height="20" as="geometry" />
        </mxCell>
        <mxCell id="zx1hdnG0JAQ6Zl6AE59M-65" value="PrijavaView" style="text;align=center;fontStyle=1;verticalAlign=middle;spacingLeft=3;spacingRight=3;strokeColor=none;rotatable=0;points=[[0,0.5],[1,0.5]];portConstraint=eastwest;html=1;" vertex="1" parent="1">
          <mxGeometry x="-460" y="582" width="80" height="26" as="geometry" />
        </mxCell>
        <mxCell id="zx1hdnG0JAQ6Zl6AE59M-66" value="" style="shape=providedRequiredInterface;html=1;verticalLabelPosition=bottom;sketch=0;fillColor=#f8cecc;strokeColor=#b85450;" vertex="1" parent="1">
          <mxGeometry x="-270" y="547" width="20" height="20" as="geometry" />
        </mxCell>
        <mxCell id="zx1hdnG0JAQ6Zl6AE59M-67" value="KorisnikView" style="text;align=center;fontStyle=1;verticalAlign=middle;spacingLeft=3;spacingRight=3;strokeColor=none;rotatable=0;points=[[0,0.5],[1,0.5]];portConstraint=eastwest;html=1;" vertex="1" parent="1">
          <mxGeometry x="-300" y="577" width="80" height="26" as="geometry" />
        </mxCell>
        <mxCell id="zx1hdnG0JAQ6Zl6AE59M-68" value="&amp;lt;&amp;lt;component&amp;gt;&amp;gt;&lt;div&gt;Gost&lt;/div&gt;" style="html=1;dropTarget=0;whiteSpace=wrap;fillColor=#e1d5e7;strokeColor=#9673a6;" vertex="1" parent="1">
          <mxGeometry x="-170" y="990" width="140" height="50" as="geometry" />
        </mxCell>
        <mxCell id="zx1hdnG0JAQ6Zl6AE59M-69" value="" style="shape=module;jettyWidth=8;jettyHeight=4;fillColor=#f5f5f5;fontColor=#333333;strokeColor=#666666;" vertex="1" parent="zx1hdnG0JAQ6Zl6AE59M-68">
          <mxGeometry x="1" width="20" height="20" relative="1" as="geometry">
            <mxPoint x="-27" y="7" as="offset" />
          </mxGeometry>
        </mxCell>
        <mxCell id="zx1hdnG0JAQ6Zl6AE59M-72" value="&amp;lt;&amp;lt;component&amp;gt;&amp;gt;&lt;div&gt;RegistrovaniKorisnik&lt;/div&gt;" style="html=1;dropTarget=0;whiteSpace=wrap;fillColor=#e1d5e7;strokeColor=#9673a6;" vertex="1" parent="1">
          <mxGeometry x="370" y="1000" width="140" height="50" as="geometry" />
        </mxCell>
        <mxCell id="zx1hdnG0JAQ6Zl6AE59M-73" value="" style="shape=module;jettyWidth=8;jettyHeight=4;fillColor=#f5f5f5;fontColor=#333333;strokeColor=#666666;" vertex="1" parent="zx1hdnG0JAQ6Zl6AE59M-72">
          <mxGeometry x="1" width="20" height="20" relative="1" as="geometry">
            <mxPoint x="-27" y="7" as="offset" />
          </mxGeometry>
        </mxCell>
        <mxCell id="zx1hdnG0JAQ6Zl6AE59M-74" value="&amp;lt;&amp;lt;component&amp;gt;&amp;gt;&lt;div&gt;Vlasnik/agent&lt;/div&gt;" style="html=1;dropTarget=0;whiteSpace=wrap;fillColor=#e1d5e7;strokeColor=#9673a6;" vertex="1" parent="1">
          <mxGeometry x="900" y="1000" width="140" height="50" as="geometry" />
        </mxCell>
        <mxCell id="zx1hdnG0JAQ6Zl6AE59M-75" value="" style="shape=module;jettyWidth=8;jettyHeight=4;fillColor=#f5f5f5;fontColor=#333333;strokeColor=#666666;" vertex="1" parent="zx1hdnG0JAQ6Zl6AE59M-74">
          <mxGeometry x="1" width="20" height="20" relative="1" as="geometry">
            <mxPoint x="-27" y="7" as="offset" />
          </mxGeometry>
        </mxCell>
        <mxCell id="zx1hdnG0JAQ6Zl6AE59M-81" value="" style="endArrow=none;html=1;rounded=0;exitX=0.907;exitY=0.272;exitDx=0;exitDy=0;exitPerimeter=0;entryX=0;entryY=1;entryDx=0;entryDy=0;" edge="1" parent="1" source="zx1hdnG0JAQ6Zl6AE59M-3" target="zx1hdnG0JAQ6Zl6AE59M-1">
          <mxGeometry width="50" height="50" relative="1" as="geometry">
            <mxPoint x="130" y="230" as="sourcePoint" />
            <mxPoint x="180" y="180" as="targetPoint" />
          </mxGeometry>
        </mxCell>
        <mxCell id="zx1hdnG0JAQ6Zl6AE59M-112" value="" style="endArrow=none;html=1;rounded=0;exitX=1.03;exitY=0.241;exitDx=0;exitDy=0;exitPerimeter=0;entryX=0.105;entryY=1;entryDx=0;entryDy=0;entryPerimeter=0;" edge="1" parent="1" source="zx1hdnG0JAQ6Zl6AE59M-9" target="zx1hdnG0JAQ6Zl6AE59M-1">
          <mxGeometry width="50" height="50" relative="1" as="geometry">
            <mxPoint x="130" y="230" as="sourcePoint" />
            <mxPoint x="180" y="180" as="targetPoint" />
          </mxGeometry>
        </mxCell>
        <mxCell id="zx1hdnG0JAQ6Zl6AE59M-113" value="" style="endArrow=none;html=1;rounded=0;entryX=0.224;entryY=1;entryDx=0;entryDy=0;entryPerimeter=0;" edge="1" parent="1" source="zx1hdnG0JAQ6Zl6AE59M-5" target="zx1hdnG0JAQ6Zl6AE59M-1">
          <mxGeometry width="50" height="50" relative="1" as="geometry">
            <mxPoint x="130" y="230" as="sourcePoint" />
            <mxPoint x="180" y="180" as="targetPoint" />
          </mxGeometry>
        </mxCell>
        <mxCell id="zx1hdnG0JAQ6Zl6AE59M-114" value="" style="endArrow=none;html=1;rounded=0;entryX=0.629;entryY=0.998;entryDx=0;entryDy=0;entryPerimeter=0;exitX=0.053;exitY=0.305;exitDx=0;exitDy=0;exitPerimeter=0;" edge="1" parent="1" source="zx1hdnG0JAQ6Zl6AE59M-11" target="zx1hdnG0JAQ6Zl6AE59M-1">
          <mxGeometry width="50" height="50" relative="1" as="geometry">
            <mxPoint x="490" y="230" as="sourcePoint" />
            <mxPoint x="540" y="180" as="targetPoint" />
          </mxGeometry>
        </mxCell>
        <mxCell id="zx1hdnG0JAQ6Zl6AE59M-115" value="" style="endArrow=none;html=1;rounded=0;entryX=0;entryY=0.5;entryDx=0;entryDy=0;entryPerimeter=0;exitX=0.868;exitY=0.984;exitDx=0;exitDy=0;exitPerimeter=0;" edge="1" parent="1" source="zx1hdnG0JAQ6Zl6AE59M-1" target="zx1hdnG0JAQ6Zl6AE59M-17">
          <mxGeometry width="50" height="50" relative="1" as="geometry">
            <mxPoint x="490" y="230" as="sourcePoint" />
            <mxPoint x="540" y="180" as="targetPoint" />
          </mxGeometry>
        </mxCell>
        <mxCell id="zx1hdnG0JAQ6Zl6AE59M-116" value="" style="endArrow=none;html=1;rounded=0;entryX=0;entryY=0.5;entryDx=0;entryDy=0;entryPerimeter=0;exitX=1;exitY=1;exitDx=0;exitDy=0;" edge="1" parent="1" source="zx1hdnG0JAQ6Zl6AE59M-1" target="zx1hdnG0JAQ6Zl6AE59M-13">
          <mxGeometry width="50" height="50" relative="1" as="geometry">
            <mxPoint x="850" y="230" as="sourcePoint" />
            <mxPoint x="900" y="180" as="targetPoint" />
          </mxGeometry>
        </mxCell>
        <mxCell id="zx1hdnG0JAQ6Zl6AE59M-117" value="" style="endArrow=none;html=1;rounded=0;exitX=0.563;exitY=-0.022;exitDx=0;exitDy=0;exitPerimeter=0;entryX=0.072;entryY=0.85;entryDx=0;entryDy=0;entryPerimeter=0;" edge="1" parent="1" source="zx1hdnG0JAQ6Zl6AE59M-32" target="zx1hdnG0JAQ6Zl6AE59M-3">
          <mxGeometry width="50" height="50" relative="1" as="geometry">
            <mxPoint x="-30" y="200" as="sourcePoint" />
            <mxPoint x="-120" y="210" as="targetPoint" />
          </mxGeometry>
        </mxCell>
        <mxCell id="zx1hdnG0JAQ6Zl6AE59M-119" value="" style="endArrow=none;html=1;rounded=0;exitX=0.591;exitY=0.003;exitDx=0;exitDy=0;exitPerimeter=0;entryX=0.584;entryY=0.914;entryDx=0;entryDy=0;entryPerimeter=0;" edge="1" parent="1" source="zx1hdnG0JAQ6Zl6AE59M-30" target="zx1hdnG0JAQ6Zl6AE59M-3">
          <mxGeometry width="50" height="50" relative="1" as="geometry">
            <mxPoint x="-30" y="200" as="sourcePoint" />
            <mxPoint x="20" y="150" as="targetPoint" />
          </mxGeometry>
        </mxCell>
        <mxCell id="zx1hdnG0JAQ6Zl6AE59M-120" value="" style="endArrow=none;html=1;rounded=0;exitX=0.442;exitY=-0.022;exitDx=0;exitDy=0;exitPerimeter=0;entryX=0.534;entryY=1.164;entryDx=0;entryDy=0;entryPerimeter=0;" edge="1" parent="1" source="zx1hdnG0JAQ6Zl6AE59M-21" target="zx1hdnG0JAQ6Zl6AE59M-9">
          <mxGeometry width="50" height="50" relative="1" as="geometry">
            <mxPoint x="-30" y="200" as="sourcePoint" />
            <mxPoint x="20" y="150" as="targetPoint" />
          </mxGeometry>
        </mxCell>
        <mxCell id="zx1hdnG0JAQ6Zl6AE59M-121" value="" style="endArrow=none;html=1;rounded=0;exitX=0.433;exitY=0;exitDx=0;exitDy=0;exitPerimeter=0;entryX=0.356;entryY=0.876;entryDx=0;entryDy=0;entryPerimeter=0;" edge="1" parent="1" source="zx1hdnG0JAQ6Zl6AE59M-28" target="zx1hdnG0JAQ6Zl6AE59M-5">
          <mxGeometry width="50" height="50" relative="1" as="geometry">
            <mxPoint x="390" y="200" as="sourcePoint" />
            <mxPoint x="440" y="150" as="targetPoint" />
          </mxGeometry>
        </mxCell>
        <mxCell id="zx1hdnG0JAQ6Zl6AE59M-122" value="" style="endArrow=none;html=1;rounded=0;exitX=0.5;exitY=0;exitDx=0;exitDy=0;entryX=0.28;entryY=0.812;entryDx=0;entryDy=0;entryPerimeter=0;" edge="1" parent="1" source="zx1hdnG0JAQ6Zl6AE59M-26" target="zx1hdnG0JAQ6Zl6AE59M-11">
          <mxGeometry width="50" height="50" relative="1" as="geometry">
            <mxPoint x="390" y="200" as="sourcePoint" />
            <mxPoint x="440" y="150" as="targetPoint" />
          </mxGeometry>
        </mxCell>
        <mxCell id="zx1hdnG0JAQ6Zl6AE59M-123" value="" style="endArrow=none;html=1;rounded=0;exitX=0.57;exitY=0.046;exitDx=0;exitDy=0;exitPerimeter=0;" edge="1" parent="1" source="zx1hdnG0JAQ6Zl6AE59M-19" target="zx1hdnG0JAQ6Zl6AE59M-17">
          <mxGeometry width="50" height="50" relative="1" as="geometry">
            <mxPoint x="890" y="200" as="sourcePoint" />
            <mxPoint x="940" y="150" as="targetPoint" />
          </mxGeometry>
        </mxCell>
        <mxCell id="zx1hdnG0JAQ6Zl6AE59M-124" value="" style="endArrow=none;html=1;rounded=0;exitX=0.467;exitY=0;exitDx=0;exitDy=0;exitPerimeter=0;" edge="1" parent="1" source="zx1hdnG0JAQ6Zl6AE59M-24">
          <mxGeometry width="50" height="50" relative="1" as="geometry">
            <mxPoint x="890" y="200" as="sourcePoint" />
            <mxPoint x="1070" y="210" as="targetPoint" />
          </mxGeometry>
        </mxCell>
        <mxCell id="zx1hdnG0JAQ6Zl6AE59M-125" value="" style="endArrow=none;html=1;rounded=0;entryX=0.5;entryY=1;entryDx=0;entryDy=0;" edge="1" parent="1" source="zx1hdnG0JAQ6Zl6AE59M-50" target="zx1hdnG0JAQ6Zl6AE59M-28">
          <mxGeometry width="50" height="50" relative="1" as="geometry">
            <mxPoint x="170" y="670" as="sourcePoint" />
            <mxPoint x="220" y="620" as="targetPoint" />
          </mxGeometry>
        </mxCell>
        <mxCell id="zx1hdnG0JAQ6Zl6AE59M-126" value="" style="endArrow=none;html=1;rounded=0;entryX=0.5;entryY=1;entryDx=0;entryDy=0;exitX=0.805;exitY=0.119;exitDx=0;exitDy=0;exitPerimeter=0;" edge="1" parent="1" source="zx1hdnG0JAQ6Zl6AE59M-42" target="zx1hdnG0JAQ6Zl6AE59M-21">
          <mxGeometry width="50" height="50" relative="1" as="geometry">
            <mxPoint x="170" y="670" as="sourcePoint" />
            <mxPoint x="220" y="620" as="targetPoint" />
          </mxGeometry>
        </mxCell>
        <mxCell id="zx1hdnG0JAQ6Zl6AE59M-129" value="" style="endArrow=none;html=1;rounded=0;entryX=0.25;entryY=1;entryDx=0;entryDy=0;exitX=1.019;exitY=0.179;exitDx=0;exitDy=0;exitPerimeter=0;" edge="1" parent="1" source="zx1hdnG0JAQ6Zl6AE59M-54" target="zx1hdnG0JAQ6Zl6AE59M-26">
          <mxGeometry width="50" height="50" relative="1" as="geometry">
            <mxPoint x="320" y="670" as="sourcePoint" />
            <mxPoint x="370" y="620" as="targetPoint" />
          </mxGeometry>
        </mxCell>
        <mxCell id="zx1hdnG0JAQ6Zl6AE59M-130" value="" style="endArrow=none;html=1;rounded=0;entryX=0.5;entryY=1;entryDx=0;entryDy=0;" edge="1" parent="1" source="zx1hdnG0JAQ6Zl6AE59M-56" target="zx1hdnG0JAQ6Zl6AE59M-26">
          <mxGeometry width="50" height="50" relative="1" as="geometry">
            <mxPoint x="320" y="670" as="sourcePoint" />
            <mxPoint x="370" y="620" as="targetPoint" />
          </mxGeometry>
        </mxCell>
        <mxCell id="zx1hdnG0JAQ6Zl6AE59M-131" value="" style="endArrow=none;html=1;rounded=0;entryX=0.75;entryY=1;entryDx=0;entryDy=0;exitX=0;exitY=0.5;exitDx=0;exitDy=0;exitPerimeter=0;" edge="1" parent="1" source="zx1hdnG0JAQ6Zl6AE59M-58" target="zx1hdnG0JAQ6Zl6AE59M-26">
          <mxGeometry width="50" height="50" relative="1" as="geometry">
            <mxPoint x="320" y="670" as="sourcePoint" />
            <mxPoint x="370" y="620" as="targetPoint" />
          </mxGeometry>
        </mxCell>
        <mxCell id="zx1hdnG0JAQ6Zl6AE59M-132" value="" style="endArrow=none;html=1;rounded=0;" edge="1" parent="1" source="zx1hdnG0JAQ6Zl6AE59M-40">
          <mxGeometry width="50" height="50" relative="1" as="geometry">
            <mxPoint x="940" y="670" as="sourcePoint" />
            <mxPoint x="830" y="380" as="targetPoint" />
          </mxGeometry>
        </mxCell>
        <mxCell id="zx1hdnG0JAQ6Zl6AE59M-133" value="" style="endArrow=none;html=1;rounded=0;entryX=0.118;entryY=1.035;entryDx=0;entryDy=0;entryPerimeter=0;" edge="1" parent="1" source="zx1hdnG0JAQ6Zl6AE59M-44" target="zx1hdnG0JAQ6Zl6AE59M-24">
          <mxGeometry width="50" height="50" relative="1" as="geometry">
            <mxPoint x="940" y="670" as="sourcePoint" />
            <mxPoint x="990" y="620" as="targetPoint" />
          </mxGeometry>
        </mxCell>
        <mxCell id="zx1hdnG0JAQ6Zl6AE59M-134" value="" style="endArrow=none;html=1;rounded=0;entryX=0.5;entryY=1;entryDx=0;entryDy=0;exitX=0;exitY=0.5;exitDx=0;exitDy=0;exitPerimeter=0;" edge="1" parent="1" source="zx1hdnG0JAQ6Zl6AE59M-48" target="zx1hdnG0JAQ6Zl6AE59M-24">
          <mxGeometry width="50" height="50" relative="1" as="geometry">
            <mxPoint x="940" y="670" as="sourcePoint" />
            <mxPoint x="990" y="620" as="targetPoint" />
          </mxGeometry>
        </mxCell>
        <mxCell id="zx1hdnG0JAQ6Zl6AE59M-135" value="" style="endArrow=none;html=1;rounded=0;entryX=0.895;entryY=0.929;entryDx=0;entryDy=0;entryPerimeter=0;exitX=0;exitY=0.5;exitDx=0;exitDy=0;exitPerimeter=0;" edge="1" parent="1" source="zx1hdnG0JAQ6Zl6AE59M-46" target="zx1hdnG0JAQ6Zl6AE59M-24">
          <mxGeometry width="50" height="50" relative="1" as="geometry">
            <mxPoint x="940" y="670" as="sourcePoint" />
            <mxPoint x="990" y="620" as="targetPoint" />
          </mxGeometry>
        </mxCell>
        <mxCell id="zx1hdnG0JAQ6Zl6AE59M-136" value="" style="endArrow=none;html=1;rounded=0;entryX=0.75;entryY=1;entryDx=0;entryDy=0;" edge="1" parent="1" source="zx1hdnG0JAQ6Zl6AE59M-62" target="zx1hdnG0JAQ6Zl6AE59M-30">
          <mxGeometry width="50" height="50" relative="1" as="geometry">
            <mxPoint x="10" y="500" as="sourcePoint" />
            <mxPoint x="60" y="450" as="targetPoint" />
          </mxGeometry>
        </mxCell>
        <mxCell id="zx1hdnG0JAQ6Zl6AE59M-137" value="" style="endArrow=none;html=1;rounded=0;entryX=0.5;entryY=1;entryDx=0;entryDy=0;exitX=0.967;exitY=0.005;exitDx=0;exitDy=0;exitPerimeter=0;" edge="1" parent="1" source="zx1hdnG0JAQ6Zl6AE59M-60" target="zx1hdnG0JAQ6Zl6AE59M-30">
          <mxGeometry width="50" height="50" relative="1" as="geometry">
            <mxPoint x="10" y="500" as="sourcePoint" />
            <mxPoint x="60" y="450" as="targetPoint" />
          </mxGeometry>
        </mxCell>
        <mxCell id="zx1hdnG0JAQ6Zl6AE59M-138" value="" style="endArrow=none;html=1;rounded=0;entryX=0.211;entryY=1.014;entryDx=0;entryDy=0;entryPerimeter=0;exitX=0.714;exitY=-0.11;exitDx=0;exitDy=0;exitPerimeter=0;" edge="1" parent="1" source="zx1hdnG0JAQ6Zl6AE59M-66" target="zx1hdnG0JAQ6Zl6AE59M-30">
          <mxGeometry width="50" height="50" relative="1" as="geometry">
            <mxPoint x="10" y="500" as="sourcePoint" />
            <mxPoint x="60" y="450" as="targetPoint" />
          </mxGeometry>
        </mxCell>
        <mxCell id="zx1hdnG0JAQ6Zl6AE59M-139" value="" style="endArrow=none;html=1;rounded=0;exitX=0.37;exitY=0.986;exitDx=0;exitDy=0;exitPerimeter=0;entryX=0.5;entryY=-0.1;entryDx=0;entryDy=0;entryPerimeter=0;" edge="1" parent="1" source="zx1hdnG0JAQ6Zl6AE59M-32" target="zx1hdnG0JAQ6Zl6AE59M-64">
          <mxGeometry width="50" height="50" relative="1" as="geometry">
            <mxPoint x="120" y="480" as="sourcePoint" />
            <mxPoint x="170" y="430" as="targetPoint" />
          </mxGeometry>
        </mxCell>
        <mxCell id="zx1hdnG0JAQ6Zl6AE59M-140" value="" style="endArrow=none;html=1;rounded=0;entryX=0.405;entryY=1.086;entryDx=0;entryDy=0;entryPerimeter=0;exitX=0.903;exitY=0.017;exitDx=0;exitDy=0;exitPerimeter=0;" edge="1" parent="1" source="zx1hdnG0JAQ6Zl6AE59M-74" target="zx1hdnG0JAQ6Zl6AE59M-47">
          <mxGeometry width="50" height="50" relative="1" as="geometry">
            <mxPoint x="620" y="730" as="sourcePoint" />
            <mxPoint x="670" y="680" as="targetPoint" />
          </mxGeometry>
        </mxCell>
        <mxCell id="zx1hdnG0JAQ6Zl6AE59M-141" value="" style="endArrow=none;html=1;rounded=0;entryX=0.428;entryY=1.172;entryDx=0;entryDy=0;entryPerimeter=0;exitX=0.75;exitY=0;exitDx=0;exitDy=0;" edge="1" parent="1" source="zx1hdnG0JAQ6Zl6AE59M-74" target="zx1hdnG0JAQ6Zl6AE59M-49">
          <mxGeometry width="50" height="50" relative="1" as="geometry">
            <mxPoint x="620" y="730" as="sourcePoint" />
            <mxPoint x="670" y="680" as="targetPoint" />
          </mxGeometry>
        </mxCell>
        <mxCell id="zx1hdnG0JAQ6Zl6AE59M-142" value="" style="endArrow=none;html=1;rounded=0;entryX=0.361;entryY=1.243;entryDx=0;entryDy=0;entryPerimeter=0;exitX=0.63;exitY=-0.057;exitDx=0;exitDy=0;exitPerimeter=0;" edge="1" parent="1" source="zx1hdnG0JAQ6Zl6AE59M-74" target="zx1hdnG0JAQ6Zl6AE59M-45">
          <mxGeometry width="50" height="50" relative="1" as="geometry">
            <mxPoint x="620" y="730" as="sourcePoint" />
            <mxPoint x="670" y="680" as="targetPoint" />
          </mxGeometry>
        </mxCell>
        <mxCell id="zx1hdnG0JAQ6Zl6AE59M-143" value="" style="endArrow=none;html=1;rounded=0;entryX=0.497;entryY=1.015;entryDx=0;entryDy=0;entryPerimeter=0;exitX=0.147;exitY=-0.032;exitDx=0;exitDy=0;exitPerimeter=0;" edge="1" parent="1" source="zx1hdnG0JAQ6Zl6AE59M-74" target="zx1hdnG0JAQ6Zl6AE59M-57">
          <mxGeometry width="50" height="50" relative="1" as="geometry">
            <mxPoint x="520" y="730" as="sourcePoint" />
            <mxPoint x="570" y="680" as="targetPoint" />
          </mxGeometry>
        </mxCell>
        <mxCell id="zx1hdnG0JAQ6Zl6AE59M-144" value="" style="endArrow=none;html=1;rounded=0;" edge="1" parent="1" target="zx1hdnG0JAQ6Zl6AE59M-59">
          <mxGeometry width="50" height="50" relative="1" as="geometry">
            <mxPoint x="950" y="1000" as="sourcePoint" />
            <mxPoint x="570" y="680" as="targetPoint" />
          </mxGeometry>
        </mxCell>
        <mxCell id="zx1hdnG0JAQ6Zl6AE59M-145" value="" style="endArrow=none;html=1;rounded=0;entryX=0.632;entryY=0.908;entryDx=0;entryDy=0;entryPerimeter=0;exitX=0.5;exitY=0;exitDx=0;exitDy=0;" edge="1" parent="1" source="zx1hdnG0JAQ6Zl6AE59M-74" target="zx1hdnG0JAQ6Zl6AE59M-41">
          <mxGeometry width="50" height="50" relative="1" as="geometry">
            <mxPoint x="520" y="730" as="sourcePoint" />
            <mxPoint x="850" y="600" as="targetPoint" />
          </mxGeometry>
        </mxCell>
        <mxCell id="zx1hdnG0JAQ6Zl6AE59M-146" value="" style="endArrow=none;html=1;rounded=0;entryX=0.58;entryY=1.157;entryDx=0;entryDy=0;entryPerimeter=0;" edge="1" parent="1" target="zx1hdnG0JAQ6Zl6AE59M-55">
          <mxGeometry width="50" height="50" relative="1" as="geometry">
            <mxPoint x="910" y="1000" as="sourcePoint" />
            <mxPoint x="570" y="680" as="targetPoint" />
          </mxGeometry>
        </mxCell>
        <mxCell id="zx1hdnG0JAQ6Zl6AE59M-147" value="" style="endArrow=none;html=1;rounded=0;entryX=0.889;entryY=1.158;entryDx=0;entryDy=0;entryPerimeter=0;exitX=0;exitY=0.25;exitDx=0;exitDy=0;" edge="1" parent="1" source="zx1hdnG0JAQ6Zl6AE59M-74" target="zx1hdnG0JAQ6Zl6AE59M-51">
          <mxGeometry width="50" height="50" relative="1" as="geometry">
            <mxPoint x="430" y="830" as="sourcePoint" />
            <mxPoint x="480" y="780" as="targetPoint" />
          </mxGeometry>
        </mxCell>
        <mxCell id="zx1hdnG0JAQ6Zl6AE59M-148" value="" style="endArrow=none;html=1;rounded=0;exitX=0;exitY=0.25;exitDx=0;exitDy=0;" edge="1" parent="1" source="zx1hdnG0JAQ6Zl6AE59M-74" target="zx1hdnG0JAQ6Zl6AE59M-63">
          <mxGeometry width="50" height="50" relative="1" as="geometry">
            <mxPoint x="330" y="830" as="sourcePoint" />
            <mxPoint x="380" y="780" as="targetPoint" />
          </mxGeometry>
        </mxCell>
        <mxCell id="zx1hdnG0JAQ6Zl6AE59M-149" value="" style="endArrow=none;html=1;rounded=0;entryX=0.236;entryY=1.14;entryDx=0;entryDy=0;entryPerimeter=0;exitX=1;exitY=0.75;exitDx=0;exitDy=0;" edge="1" parent="1" source="zx1hdnG0JAQ6Zl6AE59M-72" target="zx1hdnG0JAQ6Zl6AE59M-45">
          <mxGeometry width="50" height="50" relative="1" as="geometry">
            <mxPoint x="720" y="830" as="sourcePoint" />
            <mxPoint x="770" y="780" as="targetPoint" />
          </mxGeometry>
        </mxCell>
        <mxCell id="zx1hdnG0JAQ6Zl6AE59M-150" value="" style="endArrow=none;html=1;rounded=0;entryX=0.545;entryY=1.012;entryDx=0;entryDy=0;entryPerimeter=0;exitX=1;exitY=0.25;exitDx=0;exitDy=0;" edge="1" parent="1" source="zx1hdnG0JAQ6Zl6AE59M-72" target="zx1hdnG0JAQ6Zl6AE59M-41">
          <mxGeometry width="50" height="50" relative="1" as="geometry">
            <mxPoint x="720" y="830" as="sourcePoint" />
            <mxPoint x="770" y="780" as="targetPoint" />
          </mxGeometry>
        </mxCell>
        <mxCell id="zx1hdnG0JAQ6Zl6AE59M-151" value="" style="endArrow=none;html=1;rounded=0;entryX=0.297;entryY=1.134;entryDx=0;entryDy=0;entryPerimeter=0;exitX=0.888;exitY=-0.055;exitDx=0;exitDy=0;exitPerimeter=0;" edge="1" parent="1" source="zx1hdnG0JAQ6Zl6AE59M-72" target="zx1hdnG0JAQ6Zl6AE59M-55">
          <mxGeometry width="50" height="50" relative="1" as="geometry">
            <mxPoint x="720" y="830" as="sourcePoint" />
            <mxPoint x="770" y="780" as="targetPoint" />
          </mxGeometry>
        </mxCell>
        <mxCell id="zx1hdnG0JAQ6Zl6AE59M-152" value="" style="endArrow=none;html=1;rounded=0;entryX=0.626;entryY=1.061;entryDx=0;entryDy=0;entryPerimeter=0;" edge="1" parent="1" target="zx1hdnG0JAQ6Zl6AE59M-51">
          <mxGeometry width="50" height="50" relative="1" as="geometry">
            <mxPoint x="451" y="1000" as="sourcePoint" />
            <mxPoint x="280" y="780" as="targetPoint" />
          </mxGeometry>
        </mxCell>
        <mxCell id="zx1hdnG0JAQ6Zl6AE59M-153" value="" style="endArrow=none;html=1;rounded=0;entryX=0.83;entryY=1.071;entryDx=0;entryDy=0;entryPerimeter=0;exitX=0.376;exitY=0.046;exitDx=0;exitDy=0;exitPerimeter=0;" edge="1" parent="1" source="zx1hdnG0JAQ6Zl6AE59M-72" target="zx1hdnG0JAQ6Zl6AE59M-43">
          <mxGeometry width="50" height="50" relative="1" as="geometry">
            <mxPoint x="230" y="830" as="sourcePoint" />
            <mxPoint x="280" y="780" as="targetPoint" />
          </mxGeometry>
        </mxCell>
        <mxCell id="zx1hdnG0JAQ6Zl6AE59M-154" value="" style="endArrow=none;html=1;rounded=0;entryX=0.643;entryY=1.097;entryDx=0;entryDy=0;entryPerimeter=0;exitX=0.142;exitY=-0.072;exitDx=0;exitDy=0;exitPerimeter=0;" edge="1" parent="1" source="zx1hdnG0JAQ6Zl6AE59M-72" target="zx1hdnG0JAQ6Zl6AE59M-63">
          <mxGeometry width="50" height="50" relative="1" as="geometry">
            <mxPoint x="-50" y="830" as="sourcePoint" />
            <mxPoint y="780" as="targetPoint" />
          </mxGeometry>
        </mxCell>
        <mxCell id="zx1hdnG0JAQ6Zl6AE59M-155" value="" style="endArrow=none;html=1;rounded=0;exitX=0.052;exitY=-0.021;exitDx=0;exitDy=0;exitPerimeter=0;" edge="1" parent="1" source="zx1hdnG0JAQ6Zl6AE59M-72" target="zx1hdnG0JAQ6Zl6AE59M-61">
          <mxGeometry width="50" height="50" relative="1" as="geometry">
            <mxPoint x="-50" y="830" as="sourcePoint" />
            <mxPoint y="780" as="targetPoint" />
          </mxGeometry>
        </mxCell>
        <mxCell id="zx1hdnG0JAQ6Zl6AE59M-156" value="" style="endArrow=none;html=1;rounded=0;entryX=0.644;entryY=1.103;entryDx=0;entryDy=0;entryPerimeter=0;exitX=0;exitY=0.25;exitDx=0;exitDy=0;" edge="1" parent="1" source="zx1hdnG0JAQ6Zl6AE59M-72" target="zx1hdnG0JAQ6Zl6AE59M-67">
          <mxGeometry width="50" height="50" relative="1" as="geometry">
            <mxPoint x="-50" y="830" as="sourcePoint" />
            <mxPoint y="780" as="targetPoint" />
          </mxGeometry>
        </mxCell>
        <mxCell id="zx1hdnG0JAQ6Zl6AE59M-157" value="" style="endArrow=none;html=1;rounded=0;entryX=0.77;entryY=1.105;entryDx=0;entryDy=0;entryPerimeter=0;exitX=0;exitY=0.5;exitDx=0;exitDy=0;" edge="1" parent="1" source="zx1hdnG0JAQ6Zl6AE59M-72" target="zx1hdnG0JAQ6Zl6AE59M-65">
          <mxGeometry width="50" height="50" relative="1" as="geometry">
            <mxPoint x="-50" y="830" as="sourcePoint" />
            <mxPoint y="780" as="targetPoint" />
          </mxGeometry>
        </mxCell>
        <mxCell id="zx1hdnG0JAQ6Zl6AE59M-158" value="" style="endArrow=none;html=1;rounded=0;entryX=0.575;entryY=1.183;entryDx=0;entryDy=0;entryPerimeter=0;exitX=0.5;exitY=0;exitDx=0;exitDy=0;" edge="1" parent="1" source="zx1hdnG0JAQ6Zl6AE59M-68" target="zx1hdnG0JAQ6Zl6AE59M-61">
          <mxGeometry width="50" height="50" relative="1" as="geometry">
            <mxPoint x="130" y="850" as="sourcePoint" />
            <mxPoint x="180" y="800" as="targetPoint" />
          </mxGeometry>
        </mxCell>
        <mxCell id="zx1hdnG0JAQ6Zl6AE59M-159" value="" style="endArrow=none;html=1;rounded=0;entryX=0.391;entryY=1.138;entryDx=0;entryDy=0;entryPerimeter=0;exitX=0.25;exitY=0;exitDx=0;exitDy=0;" edge="1" parent="1" source="zx1hdnG0JAQ6Zl6AE59M-68" target="zx1hdnG0JAQ6Zl6AE59M-65">
          <mxGeometry width="50" height="50" relative="1" as="geometry">
            <mxPoint x="50" y="870" as="sourcePoint" />
            <mxPoint x="100" y="820" as="targetPoint" />
          </mxGeometry>
        </mxCell>
        <mxCell id="zx1hdnG0JAQ6Zl6AE59M-160" value="" style="endArrow=none;html=1;rounded=0;entryX=0.086;entryY=1.069;entryDx=0;entryDy=0;entryPerimeter=0;exitX=0.661;exitY=0.011;exitDx=0;exitDy=0;exitPerimeter=0;" edge="1" parent="1" source="zx1hdnG0JAQ6Zl6AE59M-68" target="zx1hdnG0JAQ6Zl6AE59M-55">
          <mxGeometry width="50" height="50" relative="1" as="geometry">
            <mxPoint x="150" y="870" as="sourcePoint" />
            <mxPoint x="200" y="820" as="targetPoint" />
          </mxGeometry>
        </mxCell>
        <mxCell id="zx1hdnG0JAQ6Zl6AE59M-161" value="" style="endArrow=none;html=1;rounded=0;entryX=-0.016;entryY=0.913;entryDx=0;entryDy=0;entryPerimeter=0;exitX=0.931;exitY=-0.023;exitDx=0;exitDy=0;exitPerimeter=0;" edge="1" parent="1" source="zx1hdnG0JAQ6Zl6AE59M-68" target="zx1hdnG0JAQ6Zl6AE59M-45">
          <mxGeometry width="50" height="50" relative="1" as="geometry">
            <mxPoint x="740" y="870" as="sourcePoint" />
            <mxPoint x="790" y="820" as="targetPoint" />
          </mxGeometry>
        </mxCell>
      </root>
    </mxGraphModel>
  </diagram>
</mxfile>
